<svg xmlns="http://www.w3.org/2000/svg" viewBox="0 0 64 64">
  <defs>
    <linearGradient id="g" x1="0" y1="0" x2="1" y2="1">
      <stop offset="0%" stop-color="#ff2d72"/>
      <stop offset="100%" stop-color="#ff6a00"/>
    </linearGradient>
  </defs>
  <rect width="64" height="64" rx="14" fill="#ffffff"/>
  <path d="M20.5 49.6C11.6 42.5 3 36.1 3 25.8 3 18.4 8.9 12.5 16.2 12.5c4.3 0 8.1 2 10.6 5.3 2.5-3.3 6.3-5.3 10.6-5.3 7.3 0 13.2 5.9 13.2 13.3 0 10.3-8.6 16.7-17.5 23.8a7.3 7.3 0 0 1-8.9 0Z"
        fill="none" stroke="url(#g)" stroke-width="3.6" opacity="0.42"/>
  <path d="M38.8 51.2c-7.3-5.9-14.2-11.1-14.2-19.6 0-6.1 4.9-11 11-11 3.5 0 6.7 1.6 8.7 4.3 2-2.7 5.2-4.3 8.7-4.3 6.1 0 11 4.9 11 11 0 8.5-6.9 13.7-14.2 19.6a6 6 0 0 1-7.3 0Z"
        fill="url(#g)" transform="translate(-16.5 -9.4)"/>
</svg>
